<svg width="400" height="300" viewBox="0 0 400 300" xmlns="http://www.w3.org/2000/svg">
  <defs>
    <linearGradient id="skyGrad" x1="0%" y1="0%" x2="0%" y2="100%">
      <stop offset="0%" style="stop-color:#87CEEB;stop-opacity:1" />
      <stop offset="100%" style="stop-color:#E0F6FF;stop-opacity:1" />
    </linearGradient>
    <linearGradient id="mountainGrad" x1="0%" y1="0%" x2="0%" y2="100%">
      <stop offset="0%" style="stop-color:#D7CCC8;stop-opacity:1" />
      <stop offset="100%" style="stop-color:#8D6E63;stop-opacity:1" />
    </linearGradient>
  </defs>
  
  <!-- Sky -->
  <rect width="400" height="300" fill="url(#skyGrad)"/>
  
  <!-- Distant mountains -->
  <path d="M0,180 L80,120 L160,140 L240,100 L320,130 L400,110 L400,300 L0,300 Z" fill="#BCAAA4" opacity="0.6"/>
  
  <!-- Main viewpoint mountain -->
  <path d="M0,220 L120,160 L200,140 L280,170 L400,150 L400,300 L0,300 Z" fill="url(#mountainGrad)"/>
  
  <!-- Viewpoint platform -->
  <rect x="180" y="140" width="40" height="8" fill="#795548"/>
  <rect x="175" y="148" width="50" height="4" fill="#6D4C41"/>
  
  <!-- Railing -->
  <line x1="175" y1="148" x2="175" y2="135" stroke="#8D6E63" stroke-width="2"/>
  <line x1="225" y1="148" x2="225" y2="135" stroke="#8D6E63" stroke-width="2"/>
  <line x1="175" y1="135" x2="225" y2="135" stroke="#8D6E63" stroke-width="2"/>
  
  <!-- Crystal formations -->
  <polygon points="190,145 195,130 200,145" fill="#E1F5FE" opacity="0.8"/>
  <polygon points="205,145 210,125 215,145" fill="#B3E5FC" opacity="0.8"/>
  <polygon points="185,148 188,138 192,148" fill="#E1F5FE" opacity="0.6"/>
  
  <!-- Sun -->
  <circle cx="320" cy="80" r="25" fill="#FFD54F"/>
  <path d="M320,40 L320,50 M320,110 L320,120 M280,80 L290,80 M350,80 L360,80 M295,55 L302,62 M338,98 L345,105 M295,105 L302,98 M338,62 L345,55" stroke="#FFD54F" stroke-width="3"/>
  
  <!-- Clouds -->
  <ellipse cx="100" cy="70" rx="25" ry="15" fill="white" opacity="0.9"/>
  <ellipse cx="115" cy="65" rx="20" ry="12" fill="white" opacity="0.9"/>
  
  <!-- Valley view -->
  <path d="M50,250 Q150,230 250,240 T380,245" stroke="#4CAF50" stroke-width="2" fill="none" opacity="0.7"/>
  
  <!-- Title -->
  <text x="200" y="40" text-anchor="middle" font-family="Arial, sans-serif" font-size="24" font-weight="bold" fill="#5D4037">Mirador Cristalino</text>
  <text x="200" y="65" text-anchor="middle" font-family="Arial, sans-serif" font-size="14" fill="#8D6E63">Vista Panorámica</text>
</svg>