<svg width="400" height="300" viewBox="0 0 400 300" xmlns="http://www.w3.org/2000/svg">
  <defs>
    <linearGradient id="riverGrad" x1="0%" y1="0%" x2="100%" y2="100%">
      <stop offset="0%" style="stop-color:#4A90E2;stop-opacity:1" />
      <stop offset="100%" style="stop-color:#2E5C8A;stop-opacity:1" />
    </linearGradient>
    <linearGradient id="forestGrad" x1="0%" y1="0%" x2="0%" y2="100%">
      <stop offset="0%" style="stop-color:#7CB342;stop-opacity:1" />
      <stop offset="100%" style="stop-color:#4A7C59;stop-opacity:1" />
    </linearGradient>
  </defs>
  
  <!-- Background -->
  <rect width="400" height="300" fill="#E8F5E8"/>
  
  <!-- Mountains/Hills -->
  <path d="M0,150 Q100,100 200,120 T400,140 L400,300 L0,300 Z" fill="#8BC34A" opacity="0.7"/>
  <path d="M0,180 Q150,130 300,150 T400,160 L400,300 L0,300 Z" fill="#689F38" opacity="0.8"/>
  
  <!-- Trees -->
  <circle cx="80" cy="140" r="25" fill="url(#forestGrad)"/>
  <rect x="75" y="155" width="10" height="20" fill="#8D6E63"/>
  
  <circle cx="320" cy="130" r="30" fill="url(#forestGrad)"/>
  <rect x="315" y="150" width="10" height="25" fill="#8D6E63"/>
  
  <circle cx="150" cy="160" r="20" fill="url(#forestGrad)"/>
  <rect x="145" y="170" width="10" height="15" fill="#8D6E63"/>
  
  <!-- Secret River -->
  <path d="M50,200 Q150,180 250,190 T380,200" stroke="url(#riverGrad)" stroke-width="15" fill="none" opacity="0.8"/>
  <path d="M60,210 Q160,190 260,200 T390,210" stroke="url(#riverGrad)" stroke-width="10" fill="none" opacity="0.6"/>
  
  <!-- River reflections -->
  <ellipse cx="120" cy="195" rx="15" ry="3" fill="#87CEEB" opacity="0.5"/>
  <ellipse cx="200" cy="192" rx="12" ry="2" fill="#87CEEB" opacity="0.5"/>
  <ellipse cx="300" cy="198" rx="18" ry="4" fill="#87CEEB" opacity="0.5"/>
  
  <!-- Rocks -->
  <ellipse cx="100" cy="220" rx="12" ry="8" fill="#795548"/>
  <ellipse cx="280" cy="215" rx="15" ry="10" fill="#6D4C41"/>
  
  <!-- Title -->
  <text x="200" y="40" text-anchor="middle" font-family="Arial, sans-serif" font-size="24" font-weight="bold" fill="#2E7D32">Río Secreto</text>
  <text x="200" y="65" text-anchor="middle" font-family="Arial, sans-serif" font-size="14" fill="#4A7C59">Atractivo Natural</text>
</svg>